<svg width="298" height="420" viewBox="0 0 298 420" fill="none" xmlns="http://www.w3.org/2000/svg">
<g id="illu_obverse-card_alfabet-p" clip-path="url(#clip0_51_212)">
<g id="illu_obverse-card_alfabet-p_2">
<path id="Vector" d="M297.64 0H0V419.53H297.64V0Z" fill="#E9A7C3"></path>
<path id="Vector_2" d="M0 209.76L0 419.52H297.64V209.76L0 209.76Z" fill="white"></path>
<g id="Group">
<path id="Vector_3" d="M257.21 118.07V114.51C257.21 112.78 258.42 111.57 260.21 111.57C262 111.57 263.25 112.78 263.25 114.51V116.4H266.43V118.08H257.2L257.21 118.07ZM261.8 114.82C261.8 113.84 261.18 113.27 260.21 113.27C259.24 113.27 258.65 113.84 258.65 114.79V116.39H261.8V114.82Z" fill="white"></path>
<path id="Vector_4" d="M257.21 109.44V107.76H266.44V109.44H257.21Z" fill="white"></path>
<path id="Vector_5" d="M257.21 104.77V99.24H258.65V103.09H261.07V99.98H262.51V103.09H264.99V99.03H266.43V104.76H257.2L257.21 104.77Z" fill="white"></path>
<path id="Vector_6" d="M264.08 96.44C264.08 96.44 265.06 95.44 265.06 94.14C265.06 93.44 264.7 92.8 263.94 92.8C262.29 92.8 262.57 97.15 259.74 97.15C258.21 97.15 257.06 95.82 257.06 94.06C257.06 92.3 258.05 91.3 258.05 91.3L259.42 92.03C259.42 92.03 258.61 92.91 258.61 94.07C258.61 94.85 259.07 95.46 259.71 95.46C261.35 95.46 260.95 91.12 263.9 91.12C265.37 91.12 266.6 92.24 266.6 94.16C266.6 96.21 265.34 97.35 265.34 97.35L264.08 96.44Z" fill="white"></path>
</g>
<g id="Group_2">
<path id="Vector_7" d="M221.88 38.53C221.88 39.06 221.81 39.56 221.68 40.02C221.67 40.13 221.61 40.48 221.61 40.49C221.58 40.66 221.55 40.82 221.52 40.98L221.45 41.3C221.42 41.42 221.39 41.55 221.35 41.67C221.3 41.85 221.27 41.96 221.23 42.08C221.19 42.21 221.14 42.35 221.09 42.47C221.04 42.59 220.99 42.72 220.93 42.84C220.86 42.99 220.81 43.1 220.76 43.2C220.68 43.35 220.59 43.5 220.49 43.65C220.46 43.7 220.39 43.81 220.32 43.91C220.14 44.15 219.94 44.37 219.73 44.56C219.65 44.64 219.5 44.75 219.41 44.82C219.34 44.88 219.21 44.98 219.08 45.06C219.05 45.08 218.96 45.13 218.95 45.14C218.35 46.44 217.49 47.13 216.78 47.49C215.85 47.97 214.77 48.1 213.75 47.86C213.38 47.77 213.07 47.65 212.89 47.56C209.99 46.08 207.78 42.89 206.56 40.76C200.38 40.08 192.55 44.34 188.14 46.76C189.78 47.76 193.31 49.37 199.48 49.81C199.55 49.81 199.63 49.82 199.7 49.83C202.08 50.19 206.82 52.04 209.49 56.74C210.94 59.3 211.74 62.06 211.74 64.49C211.74 65.65 211.56 66.68 211.21 67.57C210.87 68.43 210.42 69.04 209.94 69.48C209.75 70.24 209.39 70.93 208.88 71.5C207.72 72.8 206.05 73.17 204.88 73.07C204.5 73.04 204.11 72.94 203.76 72.78C202.94 72.41 198.7 70.31 198.12 66.29C198.03 66.01 197.38 65.4 196.62 64.94C192.28 64.02 183.9 62.46 180.61 62.56C175.35 62.72 169.03 67.58 165.52 71C165.52 71.08 165.61 71.75 165.61 71.75C165.64 71.94 165.67 72.13 165.7 72.31C165.73 72.49 165.76 72.68 165.79 72.86C165.82 73.05 165.85 73.21 165.89 73.37C165.93 73.55 166.12 74.4 166.12 74.4C166.17 74.6 166.22 74.8 166.27 75C166.34 75.28 166.42 75.54 166.49 75.8L166.57 76.09C166.63 76.3 166.81 76.83 166.81 76.84C167.39 78.57 167.92 79.63 167.92 79.64C167.94 79.69 167.97 79.75 167.99 79.8C172.92 91.12 173.95 101.47 173.95 108.16C173.95 108.89 173.94 109.56 173.92 110.15C177.82 110.32 180.26 110.72 181.88 111.44C181.92 111.44 181.96 111.46 182.02 111.47C184.83 112.08 195.56 111.52 200.16 110.71C200.41 110.67 200.63 110.62 200.83 110.58C204.06 109.81 205.3 110.08 207.22 110.61C207.73 110.75 208.36 110.93 209.2 111.11C212.05 111.71 215.61 112.45 218.4 115.9C219.34 117.07 220.12 118.43 220.76 120.08C221.27 121.38 221.52 122.67 221.52 123.93C221.52 128.35 218.37 131.29 216.51 132.33C215.91 132.65 215.27 132.79 214.62 132.74C213.71 133.26 212.72 133.49 211.72 133.38C211.54 133.36 211.34 133.33 211.11 133.27C211.6 134.46 211.72 135.54 211.72 136.3C211.72 137.16 211.58 137.79 211.49 138.1C210.98 140.1 210.09 142.48 207.82 143.28C207.74 143.31 207.66 143.33 207.58 143.36C206.72 144.14 205.63 144.52 204.46 144.43C201.4 144.19 199.49 140.72 198.86 139.2C198.41 139.05 197.71 138.83 196.61 138.55C192.93 137.6 177.99 136.61 168.91 136.13C163.84 140.32 157.36 141.55 155.47 141.83L155.32 141.85C154.98 141.9 154.73 141.93 154.48 141.96C154.3 141.98 153.81 142.02 153.81 142.02L153.49 142.04C153.15 142.06 152.81 142.07 152.5 142.07C150.6 142.07 144.57 143.51 136.59 145.86C136.62 146.1 136.63 146.34 136.63 146.57C136.63 147.16 136.55 147.74 136.38 148.28C136.33 148.44 136.27 148.59 136.21 148.73C135.84 149.64 135.31 150.28 134.85 150.7C133.24 153.45 131.22 156.41 127.89 158.02C127.77 158.08 127.68 158.12 127.59 158.16C127.4 158.25 127.19 158.33 126.99 158.4C126.81 158.47 126.6 158.54 126.39 158.61C126.2 158.67 126.02 158.73 125.84 158.78C125.55 158.86 125.25 158.93 124.94 158.98C124.77 159.01 124.59 159.04 124.41 159.07C124.12 159.72 124.03 160.34 123.94 161.07C123.9 161.36 123.87 161.57 123.84 161.76C123.8 162.02 123.78 162.33 123.78 162.69C123.78 163.47 123.87 164.4 123.98 165.47C124.04 166.06 124.1 166.65 124.15 167.25C124.17 167.5 124.19 167.75 124.2 168.01C124.21 168.2 124.22 168.4 124.23 168.6C124.25 168.94 124.26 169.3 124.26 169.66V170.01C124.26 171.22 124.16 172.36 123.97 173.46C123.93 173.68 123.89 173.91 123.84 174.14C123.75 174.55 123.65 174.95 123.53 175.35C123.48 175.57 123.44 175.74 123.38 175.91C122.4 178.92 119.74 182.62 112.62 183.27C112.13 183.61 111.39 184.03 110.12 184.63C108.81 185.24 107.55 185.38 106.37 185.04C106.1 184.96 105.88 184.86 105.75 184.79C105.63 184.74 105.45 184.66 105.24 184.54C105.2 184.52 105.16 184.49 105.12 184.46C105.12 184.46 105.1 184.44 105.08 184.44C104.99 184.38 104.89 184.31 104.81 184.23C104.77 184.2 104.74 184.17 104.71 184.14C104.51 183.98 104.36 183.83 104.22 183.68C104.1 183.55 104 183.41 103.91 183.28C103.79 183.12 103.68 182.96 103.59 182.8C103.56 182.74 103.49 182.6 103.46 182.54C102.84 181.33 102.76 180.1 102.75 179.58C102.69 179.34 102.54 178.89 102.15 177.97C101.86 177.3 101.52 176.56 101.18 175.83C100.56 174.49 99.97 173.19 99.53 172.02C99.27 171.31 99.1 170.77 98.99 170.29C98.98 170.23 98.94 170.16 98.89 170.07C98.71 169.78 98.33 169.55 98.11 169.45C97.69 169.36 97.27 169.23 96.86 169.08C90.78 166.79 88.25 158.33 87.88 156.95C86.76 153.6 86.19 150.41 86.19 147.47C86.19 139.29 90.45 135.03 92.26 133.22C94.48 130.99 111.93 118.4 117.75 114.21C117.88 114.01 118.15 113.55 118.44 112.74C118.77 111.8 119.03 110.68 119.2 109.41C119.57 106.49 120 104.07 120.51 102.04C121.12 99.63 121.74 98.15 122.29 96.85C122.59 96.14 122.9 95.41 123.16 94.57C123.23 94.34 123.3 94.11 123.37 93.85C123.42 93.66 123.46 93.48 123.51 93.3C123.9 91.65 124.05 90.11 124.05 87.61C124.05 85.11 123.89 81.42 123.64 75.96L123.45 71.59C123.33 68.78 123.26 66.08 123.26 63.55C123.26 58.39 123.52 54.69 123.78 52.26C122.71 51.17 120.04 49 114.47 47.22C114.45 47.22 113.14 46.82 112.98 46.78C105.75 44.77 96.56 44.05 85.57 44.6C78.63 44.96 77.25 43.49 76.66 42.86C76.04 42.18 75.71 41.32 75.71 40.41C75.71 40.04 75.76 39.67 75.87 39.3C75.91 39.12 75.97 38.95 76.06 38.75C77.62 35.33 87.03 29.18 99.52 29.54C110.16 29.85 111.53 29.89 116.31 31.2L119.42 32.06C119.66 32.13 120.38 32.34 120.38 32.34C122.14 32.85 123.77 33.38 125.43 33.92C128.74 35.01 131.61 35.95 134.3 36.17C134.38 36.17 134.47 36.17 134.56 36.17C134.89 36.19 135.23 36.21 135.56 36.21C135.56 36.21 136.4 36.16 136.49 36.16L136.83 36.05L137.68 35.79C139.34 35.03 140.85 34.16 142.32 33.33C146.4 31.01 150.61 28.61 157.12 29.57C157.17 29.57 157.23 29.59 157.28 29.6C160.49 30.27 161.72 30.32 162.91 30.36C163.52 30.38 164.22 30.41 165.13 30.52C166.02 30.63 166.99 30.8 168.15 31.06C168.74 31.15 169.35 31.21 169.95 31.24C174.61 31.48 177.73 29.95 178.17 29.02C180.6 23.95 186.99 24.58 187.72 24.67C188.77 24.82 191.67 24.83 194.24 24.84C197.22 24.84 200.57 24.86 202.93 25.04C203.84 25.11 204.6 25.01 205.47 24.89C207.15 24.66 209.24 24.38 211.84 25.62C211.93 25.66 212.21 25.81 212.21 25.81C212.33 25.87 212.46 25.94 212.58 26.01C212.65 26.05 212.72 26.09 212.8 26.14C213.99 26.85 215.2 27.82 216.5 29.11C217.13 29.73 217.7 30.34 218.25 30.98C220.32 33.38 221.51 35.63 221.78 37.66C221.82 37.99 221.84 38.29 221.84 38.56L221.88 38.53ZM204.84 126.47C205.64 126.84 206.27 127.27 206.76 127.72C206.64 127.26 206.56 126.81 206.51 126.38C206.14 126.38 205.59 126.4 204.84 126.47Z" fill="white"></path>
<g id="Group_3">
<g id="Group_4">
<g id="Group_5">
<path id="Vector_8" d="M120.91 171.39C120.83 172.52 120.63 173.68 120.25 174.85C118.54 180.11 112.1 179.85 111.55 180C111.55 180 109.13 179.65 109.27 178.75C109.27 178.75 108.43 176.61 106.11 179.12C105.75 176.98 102.85 172.04 102.29 169.55C101.75 167.01 99.09 166.23 99.09 166.23C93.56 165.2 91.13 155.99 91.13 155.99C86.84 143.26 92.5 137.72 94.73 135.51C95.86 134.38 102.44 129.48 108.61 124.98C108.61 124.98 119.36 124.85 123.23 129.15C127.11 133.44 128.68 137.87 132.31 131.37C135.96 124.86 136.24 126.25 138.32 126.94C140.39 127.63 147.17 129.43 153.68 121.4C160.18 113.37 150.92 114.75 150.92 114.75C150.92 114.75 140.13 116.97 139.56 112.4C139.01 107.84 136.65 102.85 134.72 102.03C132.78 101.19 129.55 101.47 129.65 98.56C129.75 95.66 131.54 97.04 131.27 92.47C130.98 87.91 139.02 89.7 142.9 87.76C146.77 85.83 151.2 88.87 150.64 78.35C150.09 67.83 144.42 71.57 144.97 66.73C145.53 61.88 140.82 59.25 139.43 58.51C138.05 57.77 128.33 60.4 126.88 56.12C127.01 54 127.18 52.4 127.33 51.27C127.33 51.27 121.03 39.46 85.46 41.26C85.46 41.26 80.06 41.54 79.16 40.57C78.27 39.6 86.67 32.5 99.49 32.86C112.3 33.23 111.21 33.23 118.58 35.26C125.96 37.29 131.4 40.09 137.21 39.44C137.73 39.26 138.29 39.08 138.89 38.91C145.75 35.82 149.22 31.74 156.69 32.86C163.34 34.24 162.45 33.17 167.57 34.32C173.81 35.29 179.8 33.48 181.25 30.44C182.7 27.4 187.37 27.97 187.37 27.97C189.79 28.32 198.23 28.01 202.73 28.36C207.22 28.7 208.76 26.07 214.21 31.47C219.69 36.87 218.43 39.29 218.43 39.29C218.13 42.14 217.24 42.62 216.36 42.3L216.3 42.58C215.85 45.28 214.37 44.56 214.37 44.56C211.25 42.97 208.77 37.77 208.77 37.77C198.79 35.28 185.61 44.92 183.19 45.52C182.32 45.74 179.57 46.55 176.33 48.16C170.63 50.99 163.42 56.25 162.29 64.94C162.06 66.6 162.02 68.22 162.1 69.75C162.44 76.2 164.99 81.14 164.99 81.14C172.46 98.29 170.42 113 170.42 113C171.04 113.19 171.61 113.34 172.16 113.4C177.26 113.53 179.6 113.98 180.68 114.52C183.72 115.71 198.13 114.62 201.63 113.79C205.14 112.95 205.03 113.6 208.54 114.34C212.04 115.08 215.55 115.82 217.68 121.26C219.8 126.7 214.91 129.38 214.91 129.38C214.54 129.34 214.19 129.21 213.86 129.01C211.97 127.89 210.84 124.67 210.84 124.67C210.84 124.67 210.62 124.41 210.09 124.1C209.53 123.76 208.59 123.35 207.15 123.1C205 122.75 195.94 124.44 191.96 125.22C190.81 125.44 190.08 125.6 190.08 125.6C186.4 125.78 185.16 127.57 179.57 128.46C171.62 128.74 168.96 131.32 168.96 131.32C168.6 131.8 168.19 132.25 167.75 132.68C163.62 136.73 156.46 138.69 152.55 138.69C148.22 138.69 132.34 143.63 132.34 143.63C130.09 139.89 122.08 133.72 118.97 134.06C115.86 134.41 116.55 136 111.7 135.87C106.86 135.73 103.39 136.21 101.88 139.18V139.45C101.48 141.27 100 140.86 98.82 142.21C96.81 144.01 101.88 151.32 101.88 151.32V151.5C101.88 151.5 102.51 153.78 106.16 153.57C109.84 153.36 116.96 154.68 117.24 155.1C119.28 155.66 121.01 155.91 122.52 155.87V155.89C120.84 157.96 120.81 159.81 120.59 161.21C120.15 163.88 121.23 167.47 120.92 171.41L120.91 171.39ZM103.77 160.65C102.91 160.65 102.22 161.58 102.22 162.72C102.22 163.86 102.91 164.79 103.77 164.79C104.63 164.79 105.32 163.87 105.32 162.72C105.32 161.57 104.63 160.65 103.77 160.65Z" fill="#F0F0F0"></path>
<path id="Vector_9" d="M206.7 67.36V67.4C207.18 69.89 205.16 69.73 205.16 69.73C205.16 69.73 201.77 68.2 201.42 65.79C201.09 63.37 197.79 61.76 197.79 61.76C197.79 61.76 185.32 59.06 180.5 59.21C171.46 59.49 162.06 69.73 162.06 69.73C161.98 68.19 162.02 66.58 162.25 64.92C163.37 56.24 170.58 50.97 176.29 48.14L176.32 48.19L179.88 47.44C182.3 46.56 184.75 48.38 184.75 48.38C184.75 48.38 188.52 52.35 199.24 53.11C199.24 53.11 204.03 53.86 206.59 58.36C209.14 62.86 208.64 66.81 207.32 67.22C207.12 67.28 206.91 67.33 206.7 67.35V67.36Z" fill="#CFD0D2"></path>
<path id="Vector_10" d="M126.88 56.11C128.33 60.39 138.05 57.76 139.43 58.5C140.82 59.24 145.53 61.87 144.97 66.72C144.41 71.56 150.09 67.82 150.64 78.34C151.2 88.86 146.77 85.82 142.9 87.75C139.02 89.69 130.98 87.89 131.27 92.46C131.55 97.03 129.75 95.65 129.65 98.55C129.55 101.46 132.78 101.18 134.72 102.02C136.65 102.85 139.01 107.83 139.56 112.39C140.13 116.96 150.92 114.74 150.92 114.74C150.92 114.74 160.18 113.36 153.68 121.39C147.17 129.42 140.39 127.62 138.32 126.93C136.25 126.24 135.97 124.85 132.31 131.36C128.68 137.86 127.11 133.43 123.23 129.14C119.36 124.85 108.61 124.97 108.61 124.97C114.53 120.65 120.05 116.68 120.05 116.68C120.05 116.68 121.83 115.14 122.55 109.85C123.87 99.43 125.5 99.06 126.64 94.68C127.81 90.3 127.52 87.21 126.83 71.43C126.53 64.72 126.64 59.69 126.87 56.12L126.88 56.11Z" fill="#C59253"></path>
<path id="Vector_11" d="M210.1 124.08C210.63 124.39 210.85 124.65 210.85 124.65C210.85 124.65 211.98 127.86 213.87 128.99C213.87 128.99 211.97 131.59 210.58 128.5C209.2 125.39 210.1 124.08 210.1 124.08Z" fill="#E7E5E5"></path>
<path id="Vector_12" d="M205.89 139.89L205.86 140.05C204.66 143.05 202.05 138.4 201.91 137.77C201.77 137.15 202.82 136.64 197.46 135.26C192.17 133.9 168.28 132.69 167.74 132.66C168.18 132.23 168.59 131.77 168.95 131.3C168.95 131.3 171.62 128.71 179.56 128.44C185.15 127.55 186.38 125.76 190.07 125.58C190.07 125.58 190.8 125.43 191.95 125.2C192.22 125.35 197.33 128.17 201.24 128.85C205.25 129.54 205.3 131.48 205.3 131.48C209.26 134.02 208.29 137.16 208.29 137.16C207.54 140.12 206.65 140.47 205.88 139.9L205.89 139.89Z" fill="#CFD0D2"></path>
<path id="Vector_13" d="M118.95 134.04C122.06 133.7 130.08 139.88 132.32 143.61C134.59 147.35 132.32 148.41 132.32 148.41C129.8 152.84 127.38 155.78 122.5 155.85C120.99 155.89 119.26 155.63 117.22 155.08C116.94 154.67 109.82 153.35 106.14 153.55C102.49 153.76 101.86 151.48 101.86 151.48V151.3C101.86 151.3 96.79 143.98 98.8 142.19C99.99 140.84 101.47 141.26 101.86 139.43V139.16C103.38 136.19 106.84 135.7 111.68 135.85C116.52 135.98 115.84 134.4 118.95 134.04Z" fill="#C59253"></path>
<path id="Vector_14" d="M102.22 162.72C102.22 161.58 102.91 160.65 103.77 160.65C104.63 160.65 105.32 161.58 105.32 162.72C105.32 163.86 104.63 164.79 103.77 164.79C102.91 164.79 102.22 163.87 102.22 162.72ZM103.77 163.18C103.38 163.18 103.09 163.42 103.09 163.71C103.09 164 103.39 164.24 103.77 164.24C104.15 164.24 104.45 164.01 104.45 163.71C104.45 163.41 104.15 163.18 103.77 163.18Z" fill="#3C3C3B"></path>
<path id="Vector_15" d="M103.09 163.71C103.09 163.42 103.39 163.18 103.77 163.18C104.15 163.18 104.45 163.42 104.45 163.71C104.45 164 104.15 164.24 103.77 164.24C103.39 164.24 103.09 164.01 103.09 163.71Z" fill="white"></path>
<path id="Vector_16" d="M106.11 179.11C108.43 176.6 109.27 178.74 109.27 178.74C109.14 179.64 111.55 179.99 111.55 179.99C110.99 180.12 111.48 180.3 108.75 181.58C106.02 182.86 106.14 179.23 106.14 179.23C106.14 179.19 106.14 179.15 106.11 179.11Z" fill="#A09D9D"></path>
</g>
<g id="Group_6">
<path id="Vector_17" d="M101.86 151.48C101.86 151.48 102.49 153.76 106.14 153.55C109.82 153.34 116.94 154.66 117.22 155.08C119.26 155.64 120.99 155.89 122.5 155.85C127.38 155.78 129.79 152.83 132.32 148.41C132.32 148.41 134.59 147.35 132.32 143.61C130.07 139.87 122.06 133.7 118.95 134.04C115.84 134.39 116.53 135.98 111.68 135.85C106.84 135.71 103.37 136.19 101.86 139.16" stroke="#3C3C3B" stroke-linecap="round" stroke-linejoin="round"></path>
<path id="Vector_18" d="M191.97 125.2C195.96 124.42 205.02 122.73 207.16 123.08C208.6 123.32 209.54 123.74 210.1 124.08C210.63 124.39 210.85 124.65 210.85 124.65C210.85 124.65 211.98 127.86 213.87 128.99C214.2 129.19 214.55 129.32 214.92 129.36C214.92 129.36 219.81 126.68 217.69 121.24C215.56 115.8 212.05 115.05 208.55 114.32C205.04 113.58 205.15 112.94 201.64 113.77C198.14 114.6 183.72 115.69 180.69 114.49" stroke="#3C3C3B" stroke-linecap="round" stroke-linejoin="round"></path>
<path id="Vector_19" d="M167.75 132.66C168.19 132.23 168.6 131.77 168.96 131.3C168.96 131.3 171.63 128.71 179.57 128.44C185.16 127.55 186.39 125.76 190.08 125.58C190.08 125.58 190.81 125.43 191.96 125.2" stroke="#3C3C3B" stroke-linecap="round" stroke-linejoin="round"></path>
<path id="Vector_20" d="M132.32 143.61C132.32 143.61 148.21 138.67 152.53 138.67C156.45 138.67 163.6 136.71 167.73 132.66" stroke="#3C3C3B" stroke-linecap="round" stroke-linejoin="round"></path>
<path id="Vector_21" d="M181.77 116.02C181.63 115.61 181.74 115.01 180.67 114.49C179.58 113.95 177.25 113.49 172.15 113.37C171.6 113.31 171.03 113.15 170.41 112.97C168.66 112.43 166.63 111.59 164.35 111.55" stroke="#3C3C3B" stroke-linecap="round" stroke-linejoin="round"></path>
<path id="Vector_22" d="M170.41 112.97C170.41 112.97 172.45 98.26 164.98 81.11C164.98 81.11 162.43 76.17 162.09 69.72C162.01 68.18 162.05 66.57 162.28 64.91C163.4 56.23 170.61 50.96 176.32 48.13C179.56 46.52 182.31 45.71 183.18 45.49C185.6 44.89 198.79 35.25 208.76 37.74C208.76 37.74 211.25 42.94 214.36 44.53C214.36 44.53 215.84 45.26 216.29 42.55" stroke="#3C3C3B" stroke-linecap="round" stroke-linejoin="round"></path>
<path id="Vector_23" d="M214.2 40.31C214.2 40.31 215.27 41.88 216.35 42.28C217.24 42.6 218.13 42.12 218.42 39.27C218.42 39.27 219.68 36.85 214.2 31.45C208.75 26.05 207.21 28.68 202.72 28.34C198.22 27.99 189.79 28.3 187.36 27.95C187.36 27.95 182.69 27.38 181.24 30.42C179.79 33.46 173.8 35.27 167.56 34.3C162.43 33.14 163.32 34.22 156.68 32.84C149.21 31.73 145.74 35.8 138.88 38.89C138.28 39.06 137.72 39.24 137.2 39.42C131.56 41.38 130.83 43.63 129.65 45.49" stroke="#3C3C3B" stroke-linecap="round" stroke-linejoin="round"></path>
<path id="Vector_24" d="M127.68 49.14C127.68 49.14 127.52 49.81 127.33 51.26C127.18 52.39 127.01 53.99 126.88 56.11C126.66 59.68 126.55 64.71 126.84 71.42C127.53 87.2 127.82 90.29 126.65 94.67C125.5 99.05 123.88 99.42 122.56 109.84C121.84 115.13 120.06 116.67 120.06 116.67C120.06 116.67 114.54 120.64 108.62 124.96C102.45 129.47 95.87 134.36 94.74 135.49C92.51 137.71 86.85 143.24 91.14 155.97C91.14 155.97 93.56 165.17 99.1 166.21C99.1 166.21 101.76 166.99 102.3 169.53C102.86 172.03 105.76 176.97 106.12 179.1C106.14 179.14 106.14 179.18 106.15 179.22C106.15 179.22 106.03 182.85 108.76 181.57C111.49 180.29 111.01 180.12 111.56 179.98C112.12 179.84 118.56 180.1 120.26 174.83C120.64 173.66 120.83 172.5 120.92 171.37C121.23 167.43 120.15 163.84 120.59 161.17C120.81 159.78 120.84 157.93 122.52 155.85" stroke="#3C3C3B" stroke-linecap="round" stroke-linejoin="round"></path>
<path id="Vector_25" d="M127.33 51.26C127.33 51.26 121.03 39.45 85.46 41.25C85.46 41.25 80.06 41.53 79.16 40.56C78.27 39.59 86.67 32.49 99.49 32.85C112.3 33.22 111.21 33.22 118.58 35.25C125.96 37.28 131.4 40.08 137.21 39.43H137.24" stroke="#3C3C3B" stroke-linecap="round" stroke-linejoin="round"></path>
<path id="Vector_26" d="M111.55 179.99C111.55 179.99 109.13 179.64 109.27 178.74" stroke="#3C3C3B" stroke-linecap="round" stroke-linejoin="round"></path>
<path id="Vector_27" d="M213.86 128.99C213.86 128.99 211.96 131.59 210.57 128.5C209.19 125.39 210.09 124.08 210.09 124.08" stroke="#3C3C3B" stroke-linecap="round" stroke-linejoin="round"></path>
<path id="Vector_28" d="M167.74 132.66C168.29 132.69 192.18 133.89 197.46 135.26C202.81 136.64 201.76 137.15 201.91 137.77C202.05 138.4 204.66 143.05 205.86 140.05" stroke="#3C3C3B" stroke-linecap="round" stroke-linejoin="round"></path>
<path id="Vector_29" d="M204.02 136.55C204.02 136.55 204.86 139.09 205.9 139.89C206.66 140.46 207.55 140.11 208.31 137.15C208.31 137.15 209.28 134.02 205.32 131.47C205.32 131.47 205.28 129.53 201.26 128.84C197.35 128.17 192.24 125.35 191.97 125.19" stroke="#3C3C3B" stroke-linecap="round" stroke-linejoin="round"></path>
<path id="Vector_30" d="M162.08 69.72C162.08 69.72 171.47 59.47 180.52 59.2C185.33 59.05 197.81 61.75 197.81 61.75C197.81 61.75 201.11 63.36 201.44 65.78C201.79 68.2 205.18 69.72 205.18 69.72C205.18 69.72 207.2 69.88 206.72 67.39" stroke="#3C3C3B" stroke-linecap="round" stroke-linejoin="round"></path>
<path id="Vector_31" d="M204.14 65.99C204.26 67.1 205.51 67.53 206.7 67.36C206.91 67.33 207.12 67.29 207.32 67.23C208.64 66.82 209.14 62.87 206.59 58.37C204.03 53.87 199.24 53.12 199.24 53.12C188.52 52.36 184.75 48.39 184.75 48.39C184.75 48.39 182.3 46.57 179.88 47.45L176.32 48.2" stroke="#3C3C3B" stroke-linecap="round" stroke-linejoin="round"></path>
<path id="Vector_32" d="M120.91 171.45V171.39C120.89 170.63 120.66 163.14 118.71 161.04" stroke="#3C3C3B" stroke-linecap="round" stroke-linejoin="round"></path>
</g>
</g>
<path id="Vector_33" d="M165.13 111.6C165.13 111.6 166.28 95.61 161.1 83.26C155.92 70.91 160.53 62.04 164.8 57.85C164.8 57.85 160.73 63.18 162.29 72.03C163.85 80.87 165.79 83.09 165.79 83.09C165.79 83.09 172.01 96.92 170.41 112.84L165.12 111.6H165.13Z" fill="#CFD0D2"></path>
<path id="Vector_34" d="M101.96 138.96C101.96 138.96 129.82 139.8 129.43 152.65L131.7 149.47C131.7 149.47 132.81 148.18 133.01 147.74C133.21 147.29 133.72 145.76 132.58 144.07C131.44 142.38 126.9 137.54 124.17 136.07C121.44 134.59 120.14 133.56 118.12 134.18C116.11 134.8 116.48 135.33 115.22 135.64C113.96 135.95 109.44 135.72 107.97 135.91C106.5 136.11 102.68 136.84 101.96 138.96Z" fill="#B3844C"></path>
<path id="Vector_35" d="M130.71 43.77C130.71 43.77 109.86 31.83 83.98 36.4C83.98 36.4 89.53 33.08 97.76 32.85C105.99 32.63 112.43 33.65 112.43 33.65L131.03 39C131.03 39 135.3 40.16 137.58 39.3C137.58 39.3 133.24 40.12 130.72 43.77H130.71Z" fill="#CFD0D2"></path>
<path id="Vector_36" d="M127.03 137.98C127.03 137.98 137.7 133.33 151.55 138.73C151.55 138.73 137.35 141.39 132.64 143.51C132.64 143.51 128.72 138.95 127.04 137.98H127.03Z" fill="#CFD0D2"></path>
<path id="Vector_37" d="M133.83 146.51C133.83 146.82 133.79 147.12 133.7 147.4C133.46 148.2 132.95 148.61 132.69 148.77C129.57 154.2 126.4 158.11 117.08 155.56C117 155.54 116.93 155.5 116.87 155.44C116.14 155.06 109.71 153.85 106.17 154.05C102.15 154.28 101.4 151.72 101.37 151.61C101.3 151.34 101.45 151.07 101.72 151C101.98 150.93 102.26 151.08 102.33 151.34C102.36 151.42 102.94 153.23 106.11 153.05C108.85 152.9 115.84 153.81 117.36 154.6C126.06 156.98 128.87 153.43 131.88 148.16C131.93 148.07 132.01 148 132.1 147.96C132.11 147.96 132.56 147.72 132.74 147.09C132.97 146.29 132.67 145.18 131.88 143.88C129.67 140.23 121.86 134.23 118.99 134.54C117.81 134.67 117.23 134.99 116.61 135.33C115.64 135.87 114.64 136.43 111.65 136.34C106.9 136.2 103.68 136.66 102.27 139.38C102.14 139.63 101.84 139.72 101.6 139.6C101.35 139.47 101.26 139.17 101.38 138.93C103.02 135.75 106.68 135.2 111.67 135.34C114.38 135.42 115.22 134.95 116.11 134.45C116.78 134.08 117.48 133.69 118.86 133.53C122.36 133.14 130.48 139.65 132.72 143.34C133.44 144.52 133.8 145.58 133.8 146.5L133.83 146.51Z" fill="#3C3C3B"></path>
<path id="Vector_38" d="M218.7 123.88C218.7 127.8 215.19 129.77 215.14 129.8C215.05 129.85 214.95 129.87 214.84 129.86C212.26 129.57 210.66 125.64 210.4 124.93C210.19 124.73 209.24 123.94 207.06 123.58C204.94 123.23 195.09 125.06 190.17 126.07C188.34 126.16 187.2 126.62 185.74 127.19C184.22 127.79 182.5 128.47 179.63 128.93C171.97 129.2 169.31 131.64 169.29 131.66C165.41 136.77 156.98 139.17 152.52 139.17C148.32 139.17 132.62 144.04 132.47 144.09C132.21 144.17 131.93 144.02 131.84 143.76C131.76 143.49 131.91 143.22 132.17 143.13C132.82 142.93 148.17 138.17 152.52 138.17C156.87 138.17 164.99 135.68 168.55 130.99C168.72 130.82 171.5 128.21 179.54 127.93C182.24 127.49 183.91 126.84 185.38 126.26C186.86 125.68 188.14 125.17 190.05 125.08C190.56 124.97 204.4 122.12 207.23 122.59C210.15 123.07 211.18 124.29 211.22 124.34C211.26 124.39 211.29 124.44 211.31 124.49C211.71 125.61 213.08 128.49 214.8 128.84C215.56 128.37 218.95 125.94 217.2 121.43C215.17 116.22 211.9 115.54 208.43 114.81C207.47 114.61 206.77 114.41 206.2 114.25C204.72 113.83 204.16 113.68 201.72 114.25C198.21 115.08 183.67 116.21 180.47 114.94C180.21 114.84 180.09 114.55 180.19 114.29C180.29 114.03 180.58 113.91 180.84 114.01C183.67 115.13 197.72 114.16 201.49 113.27C204.18 112.63 204.9 112.83 206.47 113.27C207.02 113.42 207.7 113.62 208.63 113.81C212.2 114.56 215.9 115.33 218.12 121.04C218.52 122.07 218.69 123.01 218.69 123.86L218.7 123.88Z" fill="#3C3C3B"></path>
<path id="Vector_39" d="M216.77 42.56C216.77 42.56 216.77 42.61 216.77 42.64C216.57 43.84 216.14 44.62 215.49 44.95C214.81 45.3 214.19 45.02 214.13 44.98C211.23 43.5 208.92 39.2 208.4 38.17C200.97 36.46 191.68 41.56 186.66 44.31C185 45.22 183.91 45.82 183.28 45.97C183.23 45.98 177.99 47.29 172.74 50.73C166.84 54.59 163.48 59.38 162.76 64.96C161.59 73.34 165.37 80.79 165.41 80.87C172.87 97.98 170.91 112.88 170.89 113.03C170.85 113.3 170.6 113.49 170.33 113.46C170.06 113.42 169.86 113.17 169.9 112.9C169.92 112.75 171.83 98.12 164.5 81.3C164.35 81.01 160.55 73.52 161.76 64.83C163.69 49.9 182.84 45.05 183.03 45C183.53 44.88 184.69 44.24 186.17 43.43C191.36 40.59 201.01 35.29 208.86 37.25C209 37.29 209.13 37.39 209.19 37.52C209.21 37.57 211.64 42.59 214.57 44.08C214.57 44.08 214.8 44.18 215.04 44.05C215.23 43.94 215.59 43.6 215.78 42.47C215.82 42.2 216.08 42.01 216.35 42.06C216.6 42.1 216.77 42.31 216.77 42.55V42.56Z" fill="#3C3C3B"></path>
<path id="Vector_40" d="M219.05 38.53C219.05 38.96 218.97 39.25 218.91 39.4C218.68 41.46 218.11 42.58 217.16 42.82C215.61 43.21 213.97 40.86 213.78 40.59C213.62 40.36 213.68 40.05 213.91 39.9C214.14 39.74 214.45 39.8 214.6 40.03C215.16 40.86 216.28 42.01 216.9 41.85C217.13 41.79 217.68 41.42 217.91 39.22C217.91 39.16 217.93 39.1 217.96 39.04C217.96 39.04 218.87 36.78 213.83 31.8C210.09 28.1 208.38 28.33 206.02 28.66C205.06 28.79 203.98 28.94 202.66 28.84C200.44 28.67 197.16 28.66 194.28 28.65C191.19 28.65 188.52 28.63 187.27 28.45C187.24 28.45 182.95 27.96 181.67 30.64C180.09 33.96 173.85 35.79 167.46 34.8C165.01 34.25 163.99 34.21 162.8 34.16C161.51 34.11 160.06 34.05 156.56 33.33C151.39 32.56 148.24 34.36 144.25 36.63C142.66 37.54 141.01 38.48 139.06 39.35C132.78 41.17 131.55 43.24 130.47 45.07C130.33 45.31 130.19 45.54 130.05 45.77C129.9 46 129.59 46.07 129.36 45.92C129.13 45.77 129.06 45.46 129.21 45.23C129.35 45.01 129.48 44.79 129.61 44.56C130.73 42.67 132.12 40.32 138.72 38.41C140.56 37.58 142.19 36.65 143.76 35.75C147.75 33.48 151.2 31.51 156.74 32.34C160.18 33.06 161.59 33.11 162.84 33.16C164.03 33.21 165.14 33.25 167.65 33.82C173.49 34.73 179.39 33.11 180.77 30.21C182.37 26.88 187.2 27.43 187.41 27.46C188.6 27.63 191.36 27.64 194.29 27.65C197.2 27.65 200.49 27.67 202.75 27.85C203.97 27.94 204.95 27.81 205.9 27.68C208.34 27.35 210.46 27.06 214.55 31.1C218.38 34.88 219.05 37.3 219.05 38.54V38.53Z" fill="#3C3C3B"></path>
<path id="Vector_41" d="M137.72 39.42C137.72 39.67 137.53 39.89 137.28 39.92C133.01 40.41 128.97 39.08 124.28 37.54C122.43 36.93 120.52 36.3 118.45 35.73L116.69 35.24C111.21 33.71 111.11 33.68 99.47 33.34C87.84 33.01 80.1 38.94 79.62 40.28C80.29 40.71 83.08 40.86 85.43 40.74C120.91 38.95 127.5 50.53 127.77 51.02C127.9 51.26 127.81 51.57 127.56 51.7C127.32 51.83 127.02 51.74 126.88 51.5C126.81 51.37 120.18 40 85.48 41.75C84.16 41.82 79.78 41.96 78.79 40.9C78.65 40.75 78.46 40.42 78.71 39.88C79.59 37.95 87.51 32.01 99.49 32.35C111.25 32.69 111.36 32.72 116.95 34.28L118.71 34.77C120.81 35.35 122.73 35.98 124.59 36.59C129.16 38.09 133.11 39.39 137.16 38.93C137.43 38.9 137.68 39.1 137.71 39.37C137.71 39.39 137.71 39.41 137.71 39.43L137.72 39.42Z" fill="#3C3C3B"></path>
<path id="Vector_42" d="M182.27 116.02C182.27 116.23 182.14 116.42 181.94 116.49C181.68 116.58 181.39 116.44 181.3 116.18C181.26 116.08 181.24 115.97 181.21 115.85C181.09 115.28 180.84 114.08 172.12 113.87C171.18 113.76 170.21 113.44 169.18 113.1C167.73 112.62 166.08 112.07 164.32 112.05C164.04 112.05 163.8 111.85 163.83 111.54C163.83 111.26 164.06 111.04 164.34 111.05C166.26 111.08 167.98 111.65 169.5 112.15C170.48 112.47 171.4 112.78 172.19 112.87C180.94 113.08 181.89 114.25 182.19 115.65C182.21 115.72 182.22 115.79 182.24 115.85C182.26 115.9 182.27 115.96 182.27 116.02Z" fill="#3C3C3B"></path>
<path id="Vector_43" d="M128.17 49.14C128.17 49.14 128.17 49.22 128.16 49.25C128.14 49.31 126.66 55.9 127.34 71.39L127.53 75.75C128.07 87.89 128.2 90.77 127.14 94.79C126.76 96.23 126.33 97.24 125.88 98.31C124.97 100.46 123.94 102.9 123.06 109.9C122.33 115.32 120.46 116.98 120.38 117.05C120.11 117.24 97.24 133.68 95.08 135.85C92.75 138.18 87.44 143.49 91.6 155.82C91.63 155.94 94.02 164.76 99.18 165.72C99.35 165.77 102.18 166.63 102.78 169.43C103.04 170.61 103.88 172.44 104.7 174.2C105.61 176.17 106.47 178.02 106.62 179.16C106.62 179.63 106.71 180.86 107.27 181.23C107.55 181.42 107.98 181.38 108.53 181.12C110.22 180.33 110.63 179.98 110.83 179.81C111 179.67 111.13 179.57 111.42 179.5C111.5 179.48 111.69 179.46 111.97 179.44C113.55 179.32 118.38 178.97 119.77 174.69C120.78 171.57 120.47 168.54 120.19 165.86C120.01 164.13 119.84 162.5 120.07 161.1C120.1 160.91 120.13 160.71 120.16 160.51C120.35 159.15 120.58 157.45 122.11 155.55C122.28 155.34 122.6 155.3 122.81 155.48C123.02 155.65 123.06 155.97 122.88 156.18C121.52 157.86 121.32 159.34 121.14 160.64C121.11 160.85 121.08 161.06 121.05 161.26C120.84 162.53 121 164.02 121.18 165.75C121.47 168.53 121.79 171.67 120.71 174.99C119.65 178.26 116.73 180.09 112.03 180.43C111.85 180.44 111.72 180.45 111.65 180.46C111.597 180.473 111.537 180.51 111.47 180.57C111.22 180.78 110.76 181.17 108.95 182.02C108.06 182.43 107.31 182.45 106.72 182.06C105.59 181.32 105.62 179.42 105.62 179.21C105.49 178.3 104.63 176.43 103.79 174.62C102.95 172.81 102.08 170.93 101.8 169.64C101.32 167.43 98.96 166.7 98.94 166.69C93.21 165.62 90.74 156.49 90.64 156.1C86.29 143.21 92.12 137.38 94.31 135.19C96.58 132.92 118.81 116.94 119.75 116.26C119.75 116.26 121.38 114.71 122.05 109.77C122.95 102.64 124.01 100.13 124.94 97.92C125.38 96.89 125.79 95.91 126.15 94.53C127.17 90.66 127.05 87.8 126.51 75.79L126.32 71.43C125.63 55.76 127.1 49.28 127.17 49.01C127.23 48.74 127.5 48.57 127.77 48.64C128 48.69 128.16 48.9 128.16 49.13L128.17 49.14Z" fill="#3C3C3B"></path>
<path id="Vector_44" d="M121.4 171.45C121.4 171.72 121.18 171.95 120.91 171.95C120.63 171.95 120.41 171.73 120.4 171.46C120.36 169.23 119.92 163.08 118.34 161.37C118.15 161.17 118.16 160.85 118.37 160.66C118.57 160.47 118.89 160.48 119.08 160.69C121.24 163.02 121.4 171.1 121.41 171.44L121.4 171.45Z" fill="#3C3C3B"></path>
<path id="Vector_45" d="M113.14 177.34C113.37 177.34 113.56 177.46 113.56 177.62C113.56 177.78 113.37 177.9 113.14 177.9C112.91 177.9 112.72 177.77 112.72 177.62C112.72 177.47 112.91 177.34 113.14 177.34Z" fill="#A09D9D"></path>
<path id="Vector_46" d="M113.99 175.33C114.22 175.33 114.41 175.45 114.41 175.61C114.41 175.77 114.22 175.89 113.99 175.89C113.76 175.89 113.57 175.77 113.57 175.61C113.57 175.45 113.76 175.33 113.99 175.33Z" fill="#A09D9D"></path>
<path id="Vector_47" d="M115.29 176.78C115.52 176.78 115.71 176.9 115.71 177.06C115.71 177.22 115.52 177.34 115.29 177.34C115.06 177.34 114.87 177.21 114.87 177.06C114.87 176.91 115.06 176.78 115.29 176.78Z" fill="#A09D9D"></path>
</g>
</g>
<path id="Vector_48" d="M85.07 359.54V310.34C85.07 286.46 101.77 269.76 126.55 269.76C151.33 269.76 168.57 286.46 168.57 310.34V336.38H212.56V359.54H85.07ZM148.46 314.65C148.46 301.18 139.84 293.28 126.55 293.28C113.26 293.28 105 301.18 105 314.29V336.38H148.45V314.65H148.46Z" fill="#3C3C3B"></path>
<path id="Vector_49" d="M262.21 129.57H261.46V209.77H262.21V129.57Z" fill="white"></path>
<path id="Vector_50" d="M262.21 0H261.46V79.72H262.21V0Z" fill="white"></path>
<g id="stroke">
<path id="Vector_51" d="M275.8 394.7C275.8 394.7 279.24 395.09 280.39 395.26C282.1 395.56 282.05 396.85 282.05 396.85L275.81 396.1L274.8 395.97L274.36 395.92C273.01 395.75 272.19 394.8 272.19 393.54C272.19 393.29 272.22 393.07 272.3 392.86L273.03 392.98C273.2 393.01 273.21 393.23 273.21 393.44C273.21 394.06 273.53 394.47 274.4 394.58L274.79 394.63V393.13L275.8 393.26V394.7Z" fill="#BCBCBB"></path>
<path id="Vector_52" d="M280.71 381.76L274.88 381.06V380.34C274.88 380.05 275.02 379.87 275.33 379.87L276.09 379.91C275.22 379.32 274.79 378.58 274.79 377.82C274.79 376.96 275.42 376.39 276.55 376.39C276.69 376.39 276.84 376.4 277 376.42L280.71 376.86V378.26C276.87 377.81 276.75 377.79 276.65 377.79C276.15 377.79 275.94 377.97 275.94 378.35C275.94 378.98 276.68 379.74 277.85 379.98C278.56 380.12 280.71 380.35 280.71 380.35V381.75V381.76Z" fill="#BCBCBB"></path>
<path id="Vector_53" d="M280.8 373.47C280.8 374.84 279.83 375.65 278.34 375.65C276.43 375.65 274.74 374.35 274.74 372.55C274.74 371.77 275.01 371.25 275.56 370.82L276.1 371.27C276.17 371.34 276.24 371.42 276.24 371.53C276.24 371.79 275.86 371.89 275.86 372.57C275.86 373.44 276.85 374.22 278.35 374.22C279.22 374.22 279.7 373.81 279.7 373.16C279.7 372.28 279.1 372.1 279.1 371.73C279.1 371.64 279.16 371.55 279.23 371.48L279.67 371.12C280.53 371.91 280.8 372.5 280.8 373.47Z" fill="#BCBCBB"></path>
<path id="Vector_54" d="M278.24 369.27H278.31C279.23 369.27 279.7 368.88 279.7 368.09C279.7 367.07 279.06 366.86 279.06 366.41C279.06 366.32 279.1 366.22 279.19 366.16L279.63 365.8C280.45 366.61 280.81 367.3 280.81 368.38C280.81 369.75 279.85 370.66 278.36 370.66C276.5 370.66 274.75 369.43 274.75 367.52C274.75 366.28 275.53 365.67 276.19 365.67C277.24 365.67 277.95 366.4 278.24 369.27ZM277.33 369.16C277.07 367.26 276.71 366.95 276.24 366.95C276.01 366.95 275.73 367.13 275.73 367.6C275.73 368.37 276.39 368.92 277.33 369.16Z" fill="#BCBCBB"></path>
<path id="Vector_55" d="M278.24 385.92H278.31C279.23 385.92 279.7 385.53 279.7 384.74C279.7 383.72 279.06 383.51 279.06 383.06C279.06 382.97 279.1 382.87 279.19 382.81L279.63 382.45C280.45 383.26 280.81 383.95 280.81 385.03C280.81 386.4 279.85 387.31 278.36 387.31C276.5 387.31 274.75 386.08 274.75 384.18C274.75 382.94 275.53 382.33 276.19 382.33C277.24 382.33 277.95 383.06 278.24 385.93V385.92ZM277.33 385.81C277.07 383.91 276.71 383.6 276.24 383.6C276.01 383.6 275.73 383.78 275.73 384.25C275.73 385.02 276.39 385.57 277.33 385.81Z" fill="#BCBCBB"></path>
<path id="Vector_56" d="M273.93 388.5C273.93 388.91 273.56 389.3 273.11 389.3C272.66 389.3 272.28 388.9 272.28 388.5C272.28 388.1 272.65 387.68 273.11 387.68C273.57 387.68 273.93 388.09 273.93 388.5Z" fill="#BCBCBB"></path>
<path id="Vector_57" d="M272.19 391.08V391.96L280.72 392.99V391.59L272.64 390.61C272.33 390.61 272.19 390.78 272.19 391.07V391.08Z" fill="#BCBCBB"></path>
<path id="Vector_58" d="M274.83 388.45V389.36L280.72 390.06V388.66L275.28 388.01C274.98 388.01 274.84 388.17 274.83 388.45Z" fill="#BCBCBB"></path>
</g>
</g>
</g>
<defs>
<clipPath id="clip0_51_212">
<rect width="297.64" height="419.53" fill="white"></rect>
</clipPath>
</defs>
</svg>